<?xml version="1.0" encoding="UTF-8"?>
<svg id="Capa_1" data-name="Capa 1" xmlns="http://www.w3.org/2000/svg" viewBox="0 0 100 100">
  <defs>
    <style>
      .cls-1 {
        fill: #fff;
      }
    </style>
  </defs>
  <path class="cls-1" d="m9.7,32.1v40c0,3.6,2.9,6.4,6.4,6.4h24.8c3.8,2.5,8.2,3.9,13,3.9s9.3-1.4,13-3.9h16.9c3.6,0,6.4-2.9,6.4-6.4v-40H9.7Zm71.2,1.7c1.1,0,2,.9,2,2s-.9,2-2,2-2-.9-2-2,.9-2,2-2Zm-56.6,5.2v32.7h-4.1v-33.8c0-2.6,5.2-4.5,6.1-3.6,1,.9-2,2.8-2,4.6Zm29.5,37.5c-11.5,0-20.9-9.3-20.9-20.9s9.3-20.9,20.9-20.9,20.9,9.3,20.9,20.9-9.3,20.9-20.9,20.9Zm32.2-5.5h-9v-5h9v5Z"/>
  <path class="cls-1" d="m83.8,25.6h-.4v-5.3h-13.4v5.2c-3.3-.4-5.9-7.9-5.9-7.9h-21s-2.9,8-6.1,8h0v-5h-13.4v5h-7.4c-3.2,0-5.8,2.3-6.3,5.3h80.3c-.5-3-3.2-5.3-6.3-5.3Zm-21.6,1h-16v-6h16v6Z"/>
  <path class="cls-1" d="m53.9,44.7c-6.1,0-11,4.9-11,11s4.9,11,11,11,11-4.9,11-11-4.9-11-11-11Z"/>
  <path class="cls-1" d="m53.8,40.7c-8.2,0-14.9,6.7-14.9,14.9s6.7,14.9,14.9,14.9,14.9-6.7,14.9-14.9-6.7-14.9-14.9-14.9Zm0,27.1c-6.6,0-12-5.4-12-12s5.4-12,12-12,12,5.4,12,12-5.4,12-12,12Z"/>
</svg>